<?xml version="1.0" encoding="UTF-8" standalone="no"?>
<!-- Created with Inkscape (http://www.inkscape.org/) -->

<svg
   width="210mm"
   height="148mm"
   viewBox="0 0 210 148"
   version="1.1"
   id="svg1"
   inkscape:version="1.4.2 (f4327f4, 2025-05-13)"
   xmlns:inkscape="http://www.inkscape.org/namespaces/inkscape"
   xmlns:sodipodi="http://sodipodi.sourceforge.net/DTD/sodipodi-0.dtd"
   xmlns="http://www.w3.org/2000/svg"
   xmlns:svg="http://www.w3.org/2000/svg">
  <sodipodi:namedview
     id="namedview1"
     pagecolor="#ffffff"
     bordercolor="#000000"
     borderopacity="0.25"
     inkscape:showpageshadow="2"
     inkscape:pageopacity="0.0"
     inkscape:pagecheckerboard="0"
     inkscape:deskcolor="#d1d1d1"
     inkscape:document-units="mm"
     inkscape:zoom="0.69753788"
     inkscape:cx="396.39424"
     inkscape:cy="331.88162"
     inkscape:window-width="1920"
     inkscape:window-height="1001"
     inkscape:window-x="-9"
     inkscape:window-y="-9"
     inkscape:window-maximized="1"
     inkscape:current-layer="layer1" />
  <defs
     id="defs1" />
  <g
     inkscape:label="Camada 1"
     inkscape:groupmode="layer"
     id="layer1">
    <path
       id="path1"
       class="st0"
       d="m 85.59776,1.5622494 c -4.186614,0 -8.142355,0.2208505 -11.892888,0.6469896 C 64.860249,3.2171462 57.154218,5.423248 50.530778,8.7473213 36.437078,14.562766 21.676014,19.957847 9.8282049,26.044761 1.5101592,30.316416 0.74307701,38.298492 1.3046307,41.692841 c 1.5043209,9.125398 7.7414105,33.051331 9.0249603,37.814585 1.092944,4.066287 5.60053,7.114878 11.040535,7.836875 3.088543,16.530839 10.965208,31.095919 22.045774,41.675269 5.660776,5.39507 12.163481,9.75216 19.283333,12.76049 7.114718,3.00831 14.851314,4.66249 22.898527,4.65768 9.165515,0.005 17.92446,-2.14586 25.83145,-5.99138 11.8677,-5.77597 21.82523,-15.33745 28.8145,-27.23532 4.53332,-7.713 7.82546,-16.427827 9.58209,-25.769269 l 23.67869,23.677889 c 3.04221,3.04241 7.97387,3.04241 11.01607,0 0.69336,-0.6934 22.28077,-22.278136 22.03535,-22.036551 3.0422,-3.042419 3.0422,-7.974047 0,-11.016467 L 193.65502,65.164958 c -0.63998,-0.643799 -25.42331,-25.424888 -25.29997,-25.305187 -7.8e-4,-9.31e-4 -9.9e-4,-0.0016 -0.002,-0.0023 -0.73208,-0.726842 -1.72061,-1.134738 -2.75162,-1.134738 h -0.18691 C 165.12235,34.822223 163.19413,29.33375 156.78987,26.0449 143.25211,19.090648 125.91392,13.033977 110.10539,6.2353339 109.58908,6.0097502 109.22816,5.8542001 109.02761,5.87955 101.72742,3.0717846 93.825473,1.5572755 85.597609,1.5624101 Z m 3.23e-4,11.0301066 c 7.57583,0.0051 14.740847,1.504241 21.248767,4.286656 2.60721,1.113158 5.10428,2.436659 7.48591,3.950927 2.02576,5.525361 4.63297,12.980942 7.86174,23.033705 -4.55275,29.100646 5.90634,40.847856 16.4507,43.184238 -2.4673,11.602329 -7.65156,21.926238 -14.66616,29.988548 -4.98884,5.73585 -10.89036,10.33321 -17.37806,13.48689 -6.48803,3.15881 -13.55261,4.88391 -21.003295,4.88391 -6.538084,0 -12.785361,-1.33386 -18.60626,-3.79089 -5.816087,-2.45671 -11.206033,-6.04671 -15.964153,-10.57925 h 0.0052 c -1.363772,-1.2935 -2.662244,-2.67741 -3.910817,-4.12622 0.03016,0.0302 0.06498,0.0649 0.10028,0.0951 27.967289,-14.38988 52.364849,-42.020942 50.59996,-73.217304 -0.862546,-15.136904 -7.590677,-24.873994 -15.61799,-31.136114 1.113158,-0.03498 2.236109,-0.06017 3.394188,-0.06017 z m 60.250327,33.917408 h 17.32993 c 0.51808,0 1.01286,0.205335 1.37902,0.572382 l 33.7369,33.738913 c 1.51915,1.523077 1.51915,3.988664 0,5.507633 l -16.52772,16.528918 c -1.51914,1.51897 -3.98498,1.51897 -5.50804,0 L 142.5216,69.118694 c -0.36629,-0.365928 -0.56837,-0.860743 -0.56837,-1.379015 V 50.408947 c 0,-2.154115 1.7411,-3.899183 3.89518,-3.899183 z m 7.05831,7.062331 c -2.15019,0 -3.89557,1.745167 -3.89557,3.895174 0,2.150379 1.74538,3.895575 3.89557,3.895575 2.15019,0 3.89518,-1.745196 3.89518,-3.895575 0,-2.150007 -1.74499,-3.895174 -3.89518,-3.895174 z M 86.79147,100.34025 c -8.167553,0 -14.791313,5.38481 -14.791313,12.03327 0,6.64847 6.62376,12.03328 14.791313,12.03328 8.167543,0 14.79091,-5.38481 14.79091,-12.03328 0,-6.64846 -6.623367,-12.03327 -14.79091,-12.03327 z"
       style="fill:#ff7f2a;stroke-width:0.320888" />
  </g>
</svg>
